<mxfile host="65bd71144e">
    <diagram name="Page-1" id="zRQfzv10hX_abkoxHjwF">
        <mxGraphModel dx="2179" dy="779" grid="1" gridSize="10" guides="1" tooltips="1" connect="1" arrows="1" fold="1" page="1" pageScale="1" pageWidth="850" pageHeight="1100" math="0" shadow="0">
            <root>
                <mxCell id="0"/>
                <mxCell id="1" parent="0"/>
                <mxCell id="LyNaJWKL_-otteVixTfj-6" style="edgeStyle=orthogonalEdgeStyle;rounded=0;orthogonalLoop=1;jettySize=auto;html=1;endArrow=none;endFill=0;" parent="1" source="LyNaJWKL_-otteVixTfj-1" target="LyNaJWKL_-otteVixTfj-5" edge="1">
                    <mxGeometry relative="1" as="geometry"/>
                </mxCell>
                <mxCell id="LyNaJWKL_-otteVixTfj-1" value="print_pixel_x" style="rounded=0;whiteSpace=wrap;html=1;" parent="1" vertex="1">
                    <mxGeometry x="140" y="250" width="90" height="30" as="geometry"/>
                </mxCell>
                <mxCell id="LyNaJWKL_-otteVixTfj-10" style="edgeStyle=orthogonalEdgeStyle;rounded=0;orthogonalLoop=1;jettySize=auto;html=1;endArrow=none;endFill=0;" parent="1" source="LyNaJWKL_-otteVixTfj-2" target="LyNaJWKL_-otteVixTfj-8" edge="1">
                    <mxGeometry relative="1" as="geometry"/>
                </mxCell>
                <mxCell id="LyNaJWKL_-otteVixTfj-2" value="print_pixel_y" style="rounded=0;whiteSpace=wrap;html=1;" parent="1" vertex="1">
                    <mxGeometry x="140" y="370" width="90" height="30" as="geometry"/>
                </mxCell>
                <mxCell id="LyNaJWKL_-otteVixTfj-7" style="edgeStyle=orthogonalEdgeStyle;rounded=0;orthogonalLoop=1;jettySize=auto;html=1;endArrow=none;endFill=0;" parent="1" source="LyNaJWKL_-otteVixTfj-3" target="LyNaJWKL_-otteVixTfj-5" edge="1">
                    <mxGeometry relative="1" as="geometry"/>
                </mxCell>
                <mxCell id="LyNaJWKL_-otteVixTfj-3" value="offset_x" style="rounded=0;whiteSpace=wrap;html=1;" parent="1" vertex="1">
                    <mxGeometry x="140" y="210" width="90" height="30" as="geometry"/>
                </mxCell>
                <mxCell id="LyNaJWKL_-otteVixTfj-9" style="edgeStyle=orthogonalEdgeStyle;rounded=0;orthogonalLoop=1;jettySize=auto;html=1;endArrow=none;endFill=0;" parent="1" source="LyNaJWKL_-otteVixTfj-4" target="LyNaJWKL_-otteVixTfj-8" edge="1">
                    <mxGeometry relative="1" as="geometry"/>
                </mxCell>
                <mxCell id="LyNaJWKL_-otteVixTfj-4" value="offset_y" style="rounded=0;whiteSpace=wrap;html=1;" parent="1" vertex="1">
                    <mxGeometry x="140" y="330" width="90" height="30" as="geometry"/>
                </mxCell>
                <mxCell id="LyNaJWKL_-otteVixTfj-12" style="edgeStyle=orthogonalEdgeStyle;rounded=0;orthogonalLoop=1;jettySize=auto;html=1;endArrow=none;endFill=0;" parent="1" source="LyNaJWKL_-otteVixTfj-5" target="LyNaJWKL_-otteVixTfj-11" edge="1">
                    <mxGeometry relative="1" as="geometry">
                        <Array as="points">
                            <mxPoint x="430" y="245"/>
                            <mxPoint x="430" y="245"/>
                        </Array>
                    </mxGeometry>
                </mxCell>
                <mxCell id="LyNaJWKL_-otteVixTfj-14" value="global_x / 10 bits" style="edgeLabel;html=1;align=center;verticalAlign=middle;resizable=0;points=[];" parent="LyNaJWKL_-otteVixTfj-12" vertex="1" connectable="0">
                    <mxGeometry x="0.4308" y="1" relative="1" as="geometry">
                        <mxPoint x="-4" y="-14" as="offset"/>
                    </mxGeometry>
                </mxCell>
                <mxCell id="LyNaJWKL_-otteVixTfj-5" value="+" style="ellipse;whiteSpace=wrap;html=1;aspect=fixed;" parent="1" vertex="1">
                    <mxGeometry x="270" y="230" width="30" height="30" as="geometry"/>
                </mxCell>
                <mxCell id="LyNaJWKL_-otteVixTfj-13" value="global_y / 10 bits" style="edgeStyle=orthogonalEdgeStyle;rounded=0;orthogonalLoop=1;jettySize=auto;html=1;endArrow=none;endFill=0;" parent="1" source="LyNaJWKL_-otteVixTfj-8" target="LyNaJWKL_-otteVixTfj-11" edge="1">
                    <mxGeometry x="0.5918" y="10" relative="1" as="geometry">
                        <Array as="points">
                            <mxPoint x="320" y="365"/>
                            <mxPoint x="320" y="280"/>
                        </Array>
                        <mxPoint as="offset"/>
                    </mxGeometry>
                </mxCell>
                <mxCell id="LyNaJWKL_-otteVixTfj-8" value="+" style="ellipse;whiteSpace=wrap;html=1;aspect=fixed;" parent="1" vertex="1">
                    <mxGeometry x="270" y="350" width="30" height="30" as="geometry"/>
                </mxCell>
                <mxCell id="LyNaJWKL_-otteVixTfj-24" value="tuile_id / 6 bits" style="edgeStyle=orthogonalEdgeStyle;shape=connector;rounded=0;orthogonalLoop=1;jettySize=auto;html=1;strokeColor=default;align=center;verticalAlign=middle;fontFamily=Helvetica;fontSize=11;fontColor=default;labelBackgroundColor=default;endArrow=none;endFill=0;" parent="1" source="LyNaJWKL_-otteVixTfj-11" target="LyNaJWKL_-otteVixTfj-18" edge="1">
                    <mxGeometry x="-0.1111" y="10" relative="1" as="geometry">
                        <Array as="points">
                            <mxPoint x="620" y="240"/>
                            <mxPoint x="620" y="240"/>
                        </Array>
                        <mxPoint as="offset"/>
                    </mxGeometry>
                </mxCell>
                <mxCell id="LyNaJWKL_-otteVixTfj-25" value="tuile_x / 3 bits" style="edgeStyle=orthogonalEdgeStyle;shape=connector;rounded=0;orthogonalLoop=1;jettySize=auto;html=1;strokeColor=default;align=center;verticalAlign=middle;fontFamily=Helvetica;fontSize=11;fontColor=default;labelBackgroundColor=default;endArrow=none;endFill=0;" parent="1" edge="1">
                    <mxGeometry x="-0.1111" y="10" relative="1" as="geometry">
                        <mxPoint x="580" y="264.71857142857135" as="sourcePoint"/>
                        <mxPoint x="670" y="264.71857142857135" as="targetPoint"/>
                        <Array as="points">
                            <mxPoint x="630" y="264.69"/>
                            <mxPoint x="630" y="264.69"/>
                        </Array>
                        <mxPoint as="offset"/>
                    </mxGeometry>
                </mxCell>
                <mxCell id="LyNaJWKL_-otteVixTfj-26" value="tuile_y / 3 bits" style="edgeStyle=orthogonalEdgeStyle;shape=connector;rounded=0;orthogonalLoop=1;jettySize=auto;html=1;strokeColor=default;align=center;verticalAlign=middle;fontFamily=Helvetica;fontSize=11;fontColor=default;labelBackgroundColor=default;endArrow=none;endFill=0;" parent="1" source="LyNaJWKL_-otteVixTfj-11" target="LyNaJWKL_-otteVixTfj-18" edge="1">
                    <mxGeometry x="-0.1111" y="10" relative="1" as="geometry">
                        <Array as="points">
                            <mxPoint x="650" y="285"/>
                            <mxPoint x="650" y="285"/>
                        </Array>
                        <mxPoint as="offset"/>
                    </mxGeometry>
                </mxCell>
                <mxCell id="LyNaJWKL_-otteVixTfj-11" value="&lt;div align=&quot;left&quot;&gt;BACKBUFF&lt;/div&gt;&lt;div&gt;&lt;br&gt;&lt;/div&gt;&lt;div&gt;128 x 128 x 6 bits&lt;/div&gt;" style="rounded=0;whiteSpace=wrap;html=1;align=left;verticalAlign=top;" parent="1" vertex="1">
                    <mxGeometry x="460" y="230" width="120" height="110" as="geometry"/>
                </mxCell>
                <mxCell id="LyNaJWKL_-otteVixTfj-16" value="CTRL" style="rounded=0;whiteSpace=wrap;html=1;align=left;verticalAlign=top;" parent="1" vertex="1">
                    <mxGeometry x="180" y="10" width="180" height="130" as="geometry"/>
                </mxCell>
                <mxCell id="LyNaJWKL_-otteVixTfj-93" style="edgeStyle=orthogonalEdgeStyle;shape=connector;rounded=0;orthogonalLoop=1;jettySize=auto;html=1;strokeColor=default;align=center;verticalAlign=middle;fontFamily=Helvetica;fontSize=11;fontColor=default;labelBackgroundColor=default;endArrow=none;endFill=0;" parent="1" source="LyNaJWKL_-otteVixTfj-18" target="LyNaJWKL_-otteVixTfj-90" edge="1">
                    <mxGeometry relative="1" as="geometry">
                        <Array as="points">
                            <mxPoint x="1150" y="295"/>
                            <mxPoint x="1150" y="489"/>
                        </Array>
                    </mxGeometry>
                </mxCell>
                <mxCell id="LyNaJWKL_-otteVixTfj-18" value="&lt;span&gt;&lt;font style=&quot;color: rgb(0, 0, 0);&quot;&gt;BackTuileBuffer&lt;/font&gt;&lt;/span&gt;" style="rounded=0;whiteSpace=wrap;html=1;align=left;verticalAlign=top;" parent="1" vertex="1">
                    <mxGeometry x="670" y="230" width="170" height="130" as="geometry"/>
                </mxCell>
                <mxCell id="LyNaJWKL_-otteVixTfj-20" value="CC" style="edgeStyle=orthogonalEdgeStyle;rounded=0;orthogonalLoop=1;jettySize=auto;html=1;endArrow=none;endFill=0;" parent="1" source="LyNaJWKL_-otteVixTfj-19" edge="1">
                    <mxGeometry x="1" relative="1" as="geometry">
                        <mxPoint x="900" y="40" as="targetPoint"/>
                        <Array as="points">
                            <mxPoint x="900" y="40"/>
                            <mxPoint x="900" y="40"/>
                        </Array>
                        <mxPoint as="offset"/>
                    </mxGeometry>
                </mxCell>
                <mxCell id="LyNaJWKL_-otteVixTfj-21" value="&lt;div&gt;pos_x&lt;/div&gt;" style="edgeStyle=orthogonalEdgeStyle;shape=connector;rounded=0;orthogonalLoop=1;jettySize=auto;html=1;strokeColor=default;align=center;verticalAlign=middle;fontFamily=Helvetica;fontSize=11;fontColor=default;labelBackgroundColor=default;endArrow=none;endFill=0;" parent="1" source="LyNaJWKL_-otteVixTfj-19" edge="1">
                    <mxGeometry x="0.3343" y="-10" relative="1" as="geometry">
                        <mxPoint x="720" y="40" as="targetPoint"/>
                        <Array as="points">
                            <mxPoint x="740" y="40"/>
                            <mxPoint x="740" y="40"/>
                        </Array>
                        <mxPoint as="offset"/>
                    </mxGeometry>
                </mxCell>
                <mxCell id="LyNaJWKL_-otteVixTfj-19" value="TUILE" style="rounded=0;whiteSpace=wrap;html=1;align=left;verticalAlign=top;" parent="1" vertex="1">
                    <mxGeometry x="750" y="30" width="120" height="110" as="geometry"/>
                </mxCell>
                <mxCell id="LyNaJWKL_-otteVixTfj-22" value="&lt;div&gt;pos_y&lt;/div&gt;" style="edgeStyle=orthogonalEdgeStyle;shape=connector;rounded=0;orthogonalLoop=1;jettySize=auto;html=1;strokeColor=default;align=center;verticalAlign=middle;fontFamily=Helvetica;fontSize=11;fontColor=default;labelBackgroundColor=default;endArrow=none;endFill=0;" parent="1" source="LyNaJWKL_-otteVixTfj-19" edge="1">
                    <mxGeometry x="0.3343" y="-10" relative="1" as="geometry">
                        <mxPoint x="720" y="60" as="targetPoint"/>
                        <mxPoint x="760" y="50" as="sourcePoint"/>
                        <Array as="points">
                            <mxPoint x="720" y="60"/>
                        </Array>
                        <mxPoint as="offset"/>
                    </mxGeometry>
                </mxCell>
                <mxCell id="LyNaJWKL_-otteVixTfj-27" value="" style="whiteSpace=wrap;html=1;aspect=fixed;fontFamily=Helvetica;fontSize=11;fontColor=default;labelBackgroundColor=default;" parent="1" vertex="1">
                    <mxGeometry x="680" y="260" width="20" height="20" as="geometry"/>
                </mxCell>
                <mxCell id="LyNaJWKL_-otteVixTfj-28" value="" style="whiteSpace=wrap;html=1;aspect=fixed;fontFamily=Helvetica;fontSize=11;fontColor=default;labelBackgroundColor=default;" parent="1" vertex="1">
                    <mxGeometry x="680" y="285" width="20" height="20" as="geometry"/>
                </mxCell>
                <mxCell id="LyNaJWKL_-otteVixTfj-29" value="" style="whiteSpace=wrap;html=1;aspect=fixed;fontFamily=Helvetica;fontSize=11;fontColor=default;labelBackgroundColor=default;" parent="1" vertex="1">
                    <mxGeometry x="680" y="310" width="20" height="20" as="geometry"/>
                </mxCell>
                <mxCell id="LyNaJWKL_-otteVixTfj-30" value="x64" style="text;html=1;align=center;verticalAlign=middle;whiteSpace=wrap;rounded=0;fontFamily=Helvetica;fontSize=11;fontColor=default;labelBackgroundColor=default;" parent="1" vertex="1">
                    <mxGeometry x="680" y="330" width="30" height="30" as="geometry"/>
                </mxCell>
                <mxCell id="LyNaJWKL_-otteVixTfj-33" value="" style="edgeStyle=orthogonalEdgeStyle;shape=connector;rounded=0;orthogonalLoop=1;jettySize=auto;html=1;strokeColor=default;align=center;verticalAlign=middle;fontFamily=Helvetica;fontSize=11;fontColor=default;labelBackgroundColor=default;endArrow=none;endFill=0;" parent="1" source="LyNaJWKL_-otteVixTfj-32" target="LyNaJWKL_-otteVixTfj-85" edge="1">
                    <mxGeometry x="1" y="10" relative="1" as="geometry">
                        <mxPoint x="410" y="480" as="targetPoint"/>
                        <Array as="points">
                            <mxPoint x="440" y="485"/>
                            <mxPoint x="440" y="485"/>
                        </Array>
                        <mxPoint as="offset"/>
                    </mxGeometry>
                </mxCell>
                <mxCell id="LyNaJWKL_-otteVixTfj-32" value="&lt;span&gt;&lt;font style=&quot;color: rgb(0, 0, 0);&quot;&gt;ACTORMGMT&lt;/font&gt;&lt;/span&gt;" style="rounded=0;whiteSpace=wrap;html=1;align=left;verticalAlign=top;" parent="1" vertex="1">
                    <mxGeometry x="460" y="470" width="390" height="240" as="geometry"/>
                </mxCell>
                <mxCell id="LyNaJWKL_-otteVixTfj-74" value="tuile_id" style="edgeStyle=orthogonalEdgeStyle;shape=connector;rounded=0;orthogonalLoop=1;jettySize=auto;html=1;strokeColor=default;align=center;verticalAlign=middle;fontFamily=Helvetica;fontSize=11;fontColor=default;labelBackgroundColor=default;endArrow=none;endFill=0;" parent="1" source="LyNaJWKL_-otteVixTfj-34" target="LyNaJWKL_-otteVixTfj-73" edge="1">
                    <mxGeometry y="10" relative="1" as="geometry">
                        <Array as="points">
                            <mxPoint x="880" y="530"/>
                            <mxPoint x="880" y="530"/>
                        </Array>
                        <mxPoint as="offset"/>
                    </mxGeometry>
                </mxCell>
                <mxCell id="LyNaJWKL_-otteVixTfj-75" value="tuile_x" style="edgeStyle=orthogonalEdgeStyle;shape=connector;rounded=0;orthogonalLoop=1;jettySize=auto;html=1;strokeColor=default;align=center;verticalAlign=middle;fontFamily=Helvetica;fontSize=11;fontColor=default;labelBackgroundColor=default;endArrow=none;endFill=0;" parent="1" source="LyNaJWKL_-otteVixTfj-34" target="LyNaJWKL_-otteVixTfj-73" edge="1">
                    <mxGeometry y="10" relative="1" as="geometry">
                        <Array as="points">
                            <mxPoint x="900" y="550"/>
                            <mxPoint x="900" y="550"/>
                        </Array>
                        <mxPoint as="offset"/>
                    </mxGeometry>
                </mxCell>
                <mxCell id="LyNaJWKL_-otteVixTfj-78" value="tuile_y" style="edgeStyle=orthogonalEdgeStyle;shape=connector;rounded=0;orthogonalLoop=1;jettySize=auto;html=1;strokeColor=default;align=center;verticalAlign=middle;fontFamily=Helvetica;fontSize=11;fontColor=default;labelBackgroundColor=default;endArrow=none;endFill=0;" parent="1" source="LyNaJWKL_-otteVixTfj-34" target="LyNaJWKL_-otteVixTfj-73" edge="1">
                    <mxGeometry y="10" relative="1" as="geometry">
                        <Array as="points">
                            <mxPoint x="900" y="570"/>
                            <mxPoint x="900" y="570"/>
                        </Array>
                        <mxPoint as="offset"/>
                    </mxGeometry>
                </mxCell>
                <mxCell id="LyNaJWKL_-otteVixTfj-79" style="edgeStyle=orthogonalEdgeStyle;shape=connector;rounded=0;orthogonalLoop=1;jettySize=auto;html=1;strokeColor=default;align=center;verticalAlign=middle;fontFamily=Helvetica;fontSize=11;fontColor=default;labelBackgroundColor=default;endArrow=none;endFill=0;entryX=0;entryY=0.5;entryDx=0;entryDy=0;" parent="1" source="LyNaJWKL_-otteVixTfj-34" target="LyNaJWKL_-otteVixTfj-80" edge="1">
                    <mxGeometry relative="1" as="geometry">
                        <mxPoint x="930" y="800" as="targetPoint"/>
                        <Array as="points">
                            <mxPoint x="870" y="605"/>
                        </Array>
                    </mxGeometry>
                </mxCell>
                <mxCell id="LyNaJWKL_-otteVixTfj-34" value="ACTOR" style="rounded=0;whiteSpace=wrap;html=1;align=left;verticalAlign=top;" parent="1" vertex="1">
                    <mxGeometry x="650" y="510" width="190" height="190" as="geometry"/>
                </mxCell>
                <mxCell id="LyNaJWKL_-otteVixTfj-36" value="tuile_id" style="rounded=0;whiteSpace=wrap;html=1;align=left;verticalAlign=top;" parent="1" vertex="1">
                    <mxGeometry x="670" y="620" width="50" height="30" as="geometry"/>
                </mxCell>
                <mxCell id="LyNaJWKL_-otteVixTfj-48" style="edgeStyle=orthogonalEdgeStyle;shape=connector;rounded=0;orthogonalLoop=1;jettySize=auto;html=1;strokeColor=default;align=center;verticalAlign=middle;fontFamily=Helvetica;fontSize=11;fontColor=default;labelBackgroundColor=default;endArrow=none;endFill=0;" parent="1" source="LyNaJWKL_-otteVixTfj-47" target="LyNaJWKL_-otteVixTfj-34" edge="1">
                    <mxGeometry relative="1" as="geometry">
                        <Array as="points">
                            <mxPoint x="650" y="570"/>
                            <mxPoint x="650" y="570"/>
                        </Array>
                    </mxGeometry>
                </mxCell>
                <mxCell id="LyNaJWKL_-otteVixTfj-47" value="ch_pos_x" style="text;html=1;align=right;verticalAlign=middle;whiteSpace=wrap;rounded=0;fontFamily=Helvetica;fontSize=11;fontColor=default;labelBackgroundColor=default;" parent="1" vertex="1">
                    <mxGeometry x="570" y="550" width="60" height="30" as="geometry"/>
                </mxCell>
                <mxCell id="LyNaJWKL_-otteVixTfj-51" style="edgeStyle=orthogonalEdgeStyle;shape=connector;rounded=0;orthogonalLoop=1;jettySize=auto;html=1;strokeColor=default;align=center;verticalAlign=middle;fontFamily=Helvetica;fontSize=11;fontColor=default;labelBackgroundColor=default;endArrow=none;endFill=0;" parent="1" source="LyNaJWKL_-otteVixTfj-49" target="LyNaJWKL_-otteVixTfj-34" edge="1">
                    <mxGeometry relative="1" as="geometry">
                        <Array as="points">
                            <mxPoint x="640" y="585"/>
                            <mxPoint x="640" y="585"/>
                        </Array>
                    </mxGeometry>
                </mxCell>
                <mxCell id="LyNaJWKL_-otteVixTfj-49" value="ch_pos_y" style="text;html=1;align=right;verticalAlign=middle;whiteSpace=wrap;rounded=0;fontFamily=Helvetica;fontSize=11;fontColor=default;labelBackgroundColor=default;" parent="1" vertex="1">
                    <mxGeometry x="570" y="570" width="60" height="30" as="geometry"/>
                </mxCell>
                <mxCell id="LyNaJWKL_-otteVixTfj-52" style="edgeStyle=orthogonalEdgeStyle;shape=connector;rounded=0;orthogonalLoop=1;jettySize=auto;html=1;strokeColor=default;align=center;verticalAlign=middle;fontFamily=Helvetica;fontSize=11;fontColor=default;labelBackgroundColor=default;endArrow=none;endFill=0;" parent="1" source="LyNaJWKL_-otteVixTfj-50" target="LyNaJWKL_-otteVixTfj-34" edge="1">
                    <mxGeometry relative="1" as="geometry">
                        <Array as="points">
                            <mxPoint x="630" y="605"/>
                        </Array>
                    </mxGeometry>
                </mxCell>
                <mxCell id="LyNaJWKL_-otteVixTfj-50" value="we_pos" style="text;html=1;align=right;verticalAlign=middle;whiteSpace=wrap;rounded=0;fontFamily=Helvetica;fontSize=11;fontColor=default;labelBackgroundColor=default;" parent="1" vertex="1">
                    <mxGeometry x="570" y="590" width="60" height="30" as="geometry"/>
                </mxCell>
                <mxCell id="LyNaJWKL_-otteVixTfj-54" style="edgeStyle=orthogonalEdgeStyle;shape=connector;rounded=0;orthogonalLoop=1;jettySize=auto;html=1;strokeColor=default;align=center;verticalAlign=middle;fontFamily=Helvetica;fontSize=11;fontColor=default;labelBackgroundColor=default;endArrow=none;endFill=0;" parent="1" source="LyNaJWKL_-otteVixTfj-53" target="LyNaJWKL_-otteVixTfj-34" edge="1">
                    <mxGeometry relative="1" as="geometry">
                        <Array as="points">
                            <mxPoint x="630" y="625"/>
                            <mxPoint x="630" y="625"/>
                        </Array>
                    </mxGeometry>
                </mxCell>
                <mxCell id="LyNaJWKL_-otteVixTfj-53" value="ch_tuile_id" style="text;html=1;align=right;verticalAlign=middle;whiteSpace=wrap;rounded=0;fontFamily=Helvetica;fontSize=11;fontColor=default;labelBackgroundColor=default;" parent="1" vertex="1">
                    <mxGeometry x="570" y="610" width="60" height="30" as="geometry"/>
                </mxCell>
                <mxCell id="LyNaJWKL_-otteVixTfj-56" style="edgeStyle=orthogonalEdgeStyle;shape=connector;rounded=0;orthogonalLoop=1;jettySize=auto;html=1;strokeColor=default;align=center;verticalAlign=middle;fontFamily=Helvetica;fontSize=11;fontColor=default;labelBackgroundColor=default;endArrow=none;endFill=0;" parent="1" source="LyNaJWKL_-otteVixTfj-55" target="LyNaJWKL_-otteVixTfj-34" edge="1">
                    <mxGeometry relative="1" as="geometry">
                        <Array as="points">
                            <mxPoint x="640" y="645"/>
                            <mxPoint x="640" y="645"/>
                        </Array>
                    </mxGeometry>
                </mxCell>
                <mxCell id="LyNaJWKL_-otteVixTfj-55" value="we_tuile" style="text;html=1;align=right;verticalAlign=middle;whiteSpace=wrap;rounded=0;fontFamily=Helvetica;fontSize=11;fontColor=default;labelBackgroundColor=default;" parent="1" vertex="1">
                    <mxGeometry x="570" y="630" width="60" height="30" as="geometry"/>
                </mxCell>
                <mxCell id="LyNaJWKL_-otteVixTfj-59" style="edgeStyle=orthogonalEdgeStyle;shape=connector;rounded=0;orthogonalLoop=1;jettySize=auto;html=1;strokeColor=default;align=center;verticalAlign=middle;fontFamily=Helvetica;fontSize=11;fontColor=default;labelBackgroundColor=default;endArrow=none;endFill=0;" parent="1" source="LyNaJWKL_-otteVixTfj-58" target="LyNaJWKL_-otteVixTfj-34" edge="1">
                    <mxGeometry relative="1" as="geometry">
                        <Array as="points">
                            <mxPoint x="630" y="650"/>
                            <mxPoint x="630" y="650"/>
                        </Array>
                    </mxGeometry>
                </mxCell>
                <mxCell id="LyNaJWKL_-otteVixTfj-58" value="clk" style="text;html=1;align=right;verticalAlign=middle;whiteSpace=wrap;rounded=0;fontFamily=Helvetica;fontSize=11;fontColor=default;labelBackgroundColor=default;" parent="1" vertex="1">
                    <mxGeometry x="570" y="650" width="60" height="30" as="geometry"/>
                </mxCell>
                <mxCell id="LyNaJWKL_-otteVixTfj-60" value="x8" style="text;html=1;align=center;verticalAlign=middle;whiteSpace=wrap;rounded=0;fontFamily=Helvetica;fontSize=11;fontColor=default;labelBackgroundColor=default;" parent="1" vertex="1">
                    <mxGeometry x="610" y="670" width="60" height="30" as="geometry"/>
                </mxCell>
                <mxCell id="LyNaJWKL_-otteVixTfj-62" value="/ 6 bits" style="text;html=1;align=right;verticalAlign=middle;whiteSpace=wrap;rounded=0;fontFamily=Helvetica;fontSize=11;fontColor=default;labelBackgroundColor=default;" parent="1" vertex="1">
                    <mxGeometry x="720" y="620" width="50" height="30" as="geometry"/>
                </mxCell>
                <mxCell id="LyNaJWKL_-otteVixTfj-63" value="is_active" style="rounded=0;whiteSpace=wrap;html=1;align=left;verticalAlign=top;" parent="1" vertex="1">
                    <mxGeometry x="670" y="660" width="50" height="30" as="geometry"/>
                </mxCell>
                <mxCell id="LyNaJWKL_-otteVixTfj-64" value="/ 1 bits" style="text;html=1;align=right;verticalAlign=middle;whiteSpace=wrap;rounded=0;fontFamily=Helvetica;fontSize=11;fontColor=default;labelBackgroundColor=default;" parent="1" vertex="1">
                    <mxGeometry x="720" y="660" width="50" height="30" as="geometry"/>
                </mxCell>
                <mxCell id="LyNaJWKL_-otteVixTfj-66" value="pos_x " style="rounded=0;whiteSpace=wrap;html=1;align=left;verticalAlign=top;" parent="1" vertex="1">
                    <mxGeometry x="670" y="540" width="50" height="30" as="geometry"/>
                </mxCell>
                <mxCell id="LyNaJWKL_-otteVixTfj-67" value="/ 10 bits" style="text;html=1;align=right;verticalAlign=middle;whiteSpace=wrap;rounded=0;fontFamily=Helvetica;fontSize=11;fontColor=default;labelBackgroundColor=default;" parent="1" vertex="1">
                    <mxGeometry x="720" y="540" width="50" height="30" as="geometry"/>
                </mxCell>
                <mxCell id="LyNaJWKL_-otteVixTfj-68" value="pos_y " style="rounded=0;whiteSpace=wrap;html=1;align=left;verticalAlign=top;" parent="1" vertex="1">
                    <mxGeometry x="670" y="580" width="50" height="30" as="geometry"/>
                </mxCell>
                <mxCell id="LyNaJWKL_-otteVixTfj-69" value="/ 10 bits" style="text;html=1;align=right;verticalAlign=middle;whiteSpace=wrap;rounded=0;fontFamily=Helvetica;fontSize=11;fontColor=default;labelBackgroundColor=default;" parent="1" vertex="1">
                    <mxGeometry x="720" y="580" width="50" height="30" as="geometry"/>
                </mxCell>
                <mxCell id="LyNaJWKL_-otteVixTfj-70" value="global_x" style="edgeStyle=orthogonalEdgeStyle;shape=connector;rounded=0;orthogonalLoop=1;jettySize=auto;html=1;strokeColor=default;align=center;verticalAlign=middle;fontFamily=Helvetica;fontSize=11;fontColor=default;labelBackgroundColor=default;endArrow=none;endFill=0;" parent="1" source="LyNaJWKL_-otteVixTfj-5" target="LyNaJWKL_-otteVixTfj-34" edge="1">
                    <mxGeometry x="0.307" y="10" relative="1" as="geometry">
                        <Array as="points">
                            <mxPoint x="340" y="245"/>
                            <mxPoint x="340" y="530"/>
                        </Array>
                        <mxPoint as="offset"/>
                    </mxGeometry>
                </mxCell>
                <mxCell id="LyNaJWKL_-otteVixTfj-71" value="global_y" style="edgeStyle=orthogonalEdgeStyle;shape=connector;rounded=0;orthogonalLoop=1;jettySize=auto;html=1;strokeColor=default;align=center;verticalAlign=middle;fontFamily=Helvetica;fontSize=11;fontColor=default;labelBackgroundColor=default;endArrow=none;endFill=0;" parent="1" source="LyNaJWKL_-otteVixTfj-8" target="LyNaJWKL_-otteVixTfj-34" edge="1">
                    <mxGeometry x="0.1776" y="10" relative="1" as="geometry">
                        <Array as="points">
                            <mxPoint x="320" y="365"/>
                            <mxPoint x="320" y="550"/>
                        </Array>
                        <mxPoint as="offset"/>
                    </mxGeometry>
                </mxCell>
                <mxCell id="LyNaJWKL_-otteVixTfj-88" style="edgeStyle=orthogonalEdgeStyle;shape=connector;rounded=0;orthogonalLoop=1;jettySize=auto;html=1;strokeColor=default;align=center;verticalAlign=middle;fontFamily=Helvetica;fontSize=11;fontColor=default;labelBackgroundColor=default;endArrow=none;endFill=0;" parent="1" source="LyNaJWKL_-otteVixTfj-73" target="LyNaJWKL_-otteVixTfj-90" edge="1">
                    <mxGeometry relative="1" as="geometry">
                        <mxPoint x="1160" y="570" as="targetPoint"/>
                        <Array as="points">
                            <mxPoint x="1180" y="570"/>
                            <mxPoint x="1180" y="515"/>
                        </Array>
                    </mxGeometry>
                </mxCell>
                <mxCell id="LyNaJWKL_-otteVixTfj-94" style="edgeStyle=orthogonalEdgeStyle;shape=connector;rounded=0;orthogonalLoop=1;jettySize=auto;html=1;strokeColor=default;align=center;verticalAlign=middle;fontFamily=Helvetica;fontSize=11;fontColor=default;labelBackgroundColor=default;endArrow=none;endFill=0;entryX=0;entryY=0.5;entryDx=0;entryDy=0;" parent="1" source="6fgGltNeWYGHIPw5uukX-6" target="LyNaJWKL_-otteVixTfj-89" edge="1">
                    <mxGeometry relative="1" as="geometry">
                        <mxPoint x="1110" y="670" as="targetPoint"/>
                        <Array as="points">
                            <mxPoint x="1310" y="650"/>
                            <mxPoint x="1310" y="420"/>
                            <mxPoint x="1250" y="420"/>
                        </Array>
                        <mxPoint x="1250" y="650.0000000000002" as="sourcePoint"/>
                    </mxGeometry>
                </mxCell>
                <mxCell id="6fgGltNeWYGHIPw5uukX-3" value="color / 4 bits" style="edgeStyle=orthogonalEdgeStyle;shape=connector;rounded=0;orthogonalLoop=1;jettySize=auto;html=1;strokeColor=default;align=center;verticalAlign=middle;fontFamily=Helvetica;fontSize=11;fontColor=default;labelBackgroundColor=default;startFill=0;endArrow=none;entryX=0.25;entryY=0.5;entryDx=0;entryDy=0;entryPerimeter=0;" parent="1" target="6fgGltNeWYGHIPw5uukX-6" edge="1">
                    <mxGeometry x="0.7022" y="10" relative="1" as="geometry">
                        <mxPoint x="1080" y="539.97" as="sourcePoint"/>
                        <mxPoint x="1190" y="620" as="targetPoint"/>
                        <Array as="points">
                            <mxPoint x="1080" y="570"/>
                            <mxPoint x="1140" y="570"/>
                            <mxPoint x="1140" y="650"/>
                        </Array>
                        <mxPoint as="offset"/>
                    </mxGeometry>
                </mxCell>
                <mxCell id="LyNaJWKL_-otteVixTfj-73" value="ActorTuileBuffer" style="rounded=0;whiteSpace=wrap;html=1;align=left;verticalAlign=top;" parent="1" vertex="1">
                    <mxGeometry x="940" y="510" width="140" height="120" as="geometry"/>
                </mxCell>
                <mxCell id="LyNaJWKL_-otteVixTfj-80" value="&lt;font style=&quot;color: rgb(0, 0, 0);&quot;&gt;bit&lt;/font&gt;" style="text;html=1;align=left;verticalAlign=middle;whiteSpace=wrap;rounded=0;fontFamily=Helvetica;fontSize=11;fontColor=#FF3333;labelBackgroundColor=default;" parent="1" vertex="1">
                    <mxGeometry x="870" y="590" width="60" height="30" as="geometry"/>
                </mxCell>
                <mxCell id="LyNaJWKL_-otteVixTfj-82" value="&lt;font style=&quot;color: rgb(0, 0, 0);&quot;&gt;abst&lt;/font&gt;" style="text;html=1;align=center;verticalAlign=middle;whiteSpace=wrap;rounded=0;fontFamily=Helvetica;fontSize=11;fontColor=#FF3333;labelBackgroundColor=default;" parent="1" vertex="1">
                    <mxGeometry x="155" y="240" width="60" height="20" as="geometry"/>
                </mxCell>
                <mxCell id="LyNaJWKL_-otteVixTfj-83" value="&lt;font style=&quot;color: rgb(0, 0, 0);&quot;&gt;abst&lt;/font&gt;" style="text;html=1;align=center;verticalAlign=middle;whiteSpace=wrap;rounded=0;fontFamily=Helvetica;fontSize=11;fontColor=#FF3333;labelBackgroundColor=default;" parent="1" vertex="1">
                    <mxGeometry x="155" y="360" width="60" height="20" as="geometry"/>
                </mxCell>
                <mxCell id="LyNaJWKL_-otteVixTfj-85" value="actor_id / 3 bits" style="text;html=1;align=center;verticalAlign=middle;whiteSpace=wrap;rounded=0;fontFamily=Helvetica;fontSize=11;fontColor=default;labelBackgroundColor=default;" parent="1" vertex="1">
                    <mxGeometry x="345" y="470" width="80" height="30" as="geometry"/>
                </mxCell>
                <mxCell id="LyNaJWKL_-otteVixTfj-87" value="" style="html=1;shadow=0;dashed=0;align=center;verticalAlign=middle;shape=mxgraph.arrows2.arrow;dy=0.6;dx=40;direction=north;notch=0;fontFamily=Helvetica;fontSize=11;fontColor=default;labelBackgroundColor=default;rotation=-90;" parent="1" vertex="1">
                    <mxGeometry x="480" y="567" width="70" height="100" as="geometry"/>
                </mxCell>
                <mxCell id="LyNaJWKL_-otteVixTfj-89" value="" style="shape=trapezoid;perimeter=trapezoidPerimeter;whiteSpace=wrap;html=1;fixedSize=1;fontFamily=Helvetica;fontSize=11;fontColor=default;labelBackgroundColor=default;rotation=90;" parent="1" vertex="1">
                    <mxGeometry x="1190" y="470" width="120" height="60" as="geometry"/>
                </mxCell>
                <mxCell id="LyNaJWKL_-otteVixTfj-96" style="edgeStyle=orthogonalEdgeStyle;shape=connector;rounded=0;orthogonalLoop=1;jettySize=auto;html=1;strokeColor=default;align=center;verticalAlign=middle;fontFamily=Helvetica;fontSize=11;fontColor=default;labelBackgroundColor=default;endArrow=none;endFill=0;" parent="1" source="LyNaJWKL_-otteVixTfj-90" target="LyNaJWKL_-otteVixTfj-98" edge="1">
                    <mxGeometry relative="1" as="geometry">
                        <mxPoint x="1370.6060606060605" y="500" as="targetPoint"/>
                        <Array as="points">
                            <mxPoint x="1350" y="500"/>
                            <mxPoint x="1350" y="500"/>
                        </Array>
                    </mxGeometry>
                </mxCell>
                <mxCell id="LyNaJWKL_-otteVixTfj-90" value="&lt;div&gt;0&lt;/div&gt;&lt;div&gt;&lt;br&gt;&lt;/div&gt;&lt;div&gt;1&lt;/div&gt;" style="text;html=1;align=left;verticalAlign=middle;whiteSpace=wrap;rounded=0;fontFamily=Helvetica;fontSize=11;fontColor=default;labelBackgroundColor=default;" parent="1" vertex="1">
                    <mxGeometry x="1220" y="460" width="60" height="80" as="geometry"/>
                </mxCell>
                <mxCell id="LyNaJWKL_-otteVixTfj-95" value="CE" style="text;html=1;align=center;verticalAlign=middle;whiteSpace=wrap;rounded=0;fontFamily=Helvetica;fontSize=11;fontColor=default;labelBackgroundColor=default;" parent="1" vertex="1">
                    <mxGeometry x="1121" y="567" width="60" height="30" as="geometry"/>
                </mxCell>
                <mxCell id="LyNaJWKL_-otteVixTfj-101" style="edgeStyle=orthogonalEdgeStyle;shape=connector;rounded=0;orthogonalLoop=1;jettySize=auto;html=1;strokeColor=default;align=center;verticalAlign=middle;fontFamily=Helvetica;fontSize=11;fontColor=default;labelBackgroundColor=default;endArrow=none;endFill=0;" parent="1" source="LyNaJWKL_-otteVixTfj-98" target="LyNaJWKL_-otteVixTfj-102" edge="1">
                    <mxGeometry relative="1" as="geometry">
                        <mxPoint x="1570" y="500" as="targetPoint"/>
                    </mxGeometry>
                </mxCell>
                <mxCell id="LyNaJWKL_-otteVixTfj-98" value="ColorConverter" style="rounded=0;whiteSpace=wrap;html=1;align=left;verticalAlign=top;" parent="1" vertex="1">
                    <mxGeometry x="1380" y="440" width="140" height="120" as="geometry"/>
                </mxCell>
                <mxCell id="LyNaJWKL_-otteVixTfj-99" value="CC / 4 bits" style="text;html=1;align=center;verticalAlign=middle;whiteSpace=wrap;rounded=0;fontFamily=Helvetica;fontSize=11;fontColor=default;labelBackgroundColor=default;" parent="1" vertex="1">
                    <mxGeometry x="1320" y="470" width="60" height="30" as="geometry"/>
                </mxCell>
                <mxCell id="LyNaJWKL_-otteVixTfj-102" value="&lt;font&gt;Color / &lt;span&gt;&lt;font style=&quot;color: rgb(0, 0, 0);&quot;&gt;8&lt;/font&gt;&lt;/span&gt; bits&lt;/font&gt;" style="text;html=1;align=center;verticalAlign=middle;whiteSpace=wrap;rounded=0;fontFamily=Helvetica;fontSize=11;fontColor=default;labelBackgroundColor=default;" parent="1" vertex="1">
                    <mxGeometry x="1570" y="485" width="80" height="30" as="geometry"/>
                </mxCell>
                <mxCell id="LyNaJWKL_-otteVixTfj-103" value="" style="endArrow=none;html=1;rounded=0;strokeColor=default;align=center;verticalAlign=middle;fontFamily=Helvetica;fontSize=11;fontColor=default;labelBackgroundColor=default;edgeStyle=orthogonalEdgeStyle;" parent="1" edge="1">
                    <mxGeometry width="50" height="50" relative="1" as="geometry">
                        <mxPoint x="568.75" y="640" as="sourcePoint"/>
                        <mxPoint x="568.75" y="560" as="targetPoint"/>
                        <Array as="points">
                            <mxPoint x="569" y="680"/>
                            <mxPoint x="569" y="680"/>
                        </Array>
                    </mxGeometry>
                </mxCell>
                <mxCell id="6fgGltNeWYGHIPw5uukX-6" value="" style="shape=xor;whiteSpace=wrap;html=1;fontFamily=Helvetica;fontSize=11;fontColor=default;labelBackgroundColor=default;" parent="1" vertex="1">
                    <mxGeometry x="1190" y="610" width="60" height="80" as="geometry"/>
                </mxCell>
                <mxCell id="2" value="" style="endArrow=none;html=1;" parent="1" edge="1">
                    <mxGeometry width="50" height="50" relative="1" as="geometry">
                        <mxPoint x="320" y="475" as="sourcePoint"/>
                        <mxPoint x="-20" y="475.0000000000001" as="targetPoint"/>
                    </mxGeometry>
                </mxCell>
                <mxCell id="4" value="" style="endArrow=none;html=1;entryX=0;entryY=0.5;entryDx=0;entryDy=0;edgeStyle=orthogonalEdgeStyle;" parent="1" edge="1">
                    <mxGeometry width="50" height="50" relative="1" as="geometry">
                        <mxPoint x="70" y="470" as="sourcePoint"/>
                        <mxPoint x="140" y="340" as="targetPoint"/>
                        <Array as="points">
                            <mxPoint x="70" y="340"/>
                        </Array>
                    </mxGeometry>
                </mxCell>
                <mxCell id="6" value="" style="endArrow=none;html=1;entryX=0;entryY=0.5;entryDx=0;entryDy=0;" parent="1" target="LyNaJWKL_-otteVixTfj-3" edge="1">
                    <mxGeometry width="50" height="50" relative="1" as="geometry">
                        <mxPoint x="70" y="350" as="sourcePoint"/>
                        <mxPoint x="400" y="420" as="targetPoint"/>
                        <Array as="points">
                            <mxPoint x="70" y="225"/>
                        </Array>
                    </mxGeometry>
                </mxCell>
                <mxCell id="7" value="" style="endArrow=none;html=1;entryX=-0.006;entryY=0.44;entryDx=0;entryDy=0;entryPerimeter=0;" parent="1" edge="1">
                    <mxGeometry width="50" height="50" relative="1" as="geometry">
                        <mxPoint x="411" y="576" as="sourcePoint"/>
                        <mxPoint x="458.65999999999985" y="575.5999999999999" as="targetPoint"/>
                    </mxGeometry>
                </mxCell>
                <mxCell id="8" value="func" style="edgeLabel;html=1;align=center;verticalAlign=middle;resizable=0;points=[];" parent="7" vertex="1" connectable="0">
                    <mxGeometry x="-0.6468" y="1" relative="1" as="geometry">
                        <mxPoint as="offset"/>
                    </mxGeometry>
                </mxCell>
                <mxCell id="9" value="" style="endArrow=none;html=1;entryX=-0.006;entryY=0.44;entryDx=0;entryDy=0;entryPerimeter=0;" parent="1" edge="1">
                    <mxGeometry width="50" height="50" relative="1" as="geometry">
                        <mxPoint x="412" y="594.63" as="sourcePoint"/>
                        <mxPoint x="460" y="594.63" as="targetPoint"/>
                    </mxGeometry>
                </mxCell>
                <mxCell id="10" value="actorType" style="edgeLabel;html=1;align=center;verticalAlign=middle;resizable=0;points=[];" parent="9" vertex="1" connectable="0">
                    <mxGeometry x="-0.6468" y="1" relative="1" as="geometry">
                        <mxPoint as="offset"/>
                    </mxGeometry>
                </mxCell>
                <mxCell id="11" value="" style="endArrow=none;html=1;entryX=-0.006;entryY=0.44;entryDx=0;entryDy=0;entryPerimeter=0;" parent="1" edge="1">
                    <mxGeometry width="50" height="50" relative="1" as="geometry">
                        <mxPoint x="412.34" y="610.4" as="sourcePoint"/>
                        <mxPoint x="459.99999999999983" y="609.9999999999999" as="targetPoint"/>
                    </mxGeometry>
                </mxCell>
                <mxCell id="12" value="actorID" style="edgeLabel;html=1;align=center;verticalAlign=middle;resizable=0;points=[];" parent="11" vertex="1" connectable="0">
                    <mxGeometry x="-0.6468" y="1" relative="1" as="geometry">
                        <mxPoint as="offset"/>
                    </mxGeometry>
                </mxCell>
                <mxCell id="13" value="CPU" style="whiteSpace=wrap;html=1;aspect=fixed;" parent="1" vertex="1">
                    <mxGeometry x="-100" y="435" width="80" height="80" as="geometry"/>
                </mxCell>
                <mxCell id="17" value="enable" style="text;html=1;align=center;verticalAlign=middle;resizable=0;points=[];autosize=1;strokeColor=none;fillColor=none;" parent="1" vertex="1">
                    <mxGeometry x="170" y="178" width="60" height="30" as="geometry"/>
                </mxCell>
                <mxCell id="18" value="enable" style="text;html=1;align=center;verticalAlign=middle;resizable=0;points=[];autosize=1;strokeColor=none;fillColor=none;" parent="1" vertex="1">
                    <mxGeometry x="180" y="305" width="60" height="30" as="geometry"/>
                </mxCell>
                <mxCell id="23" value="" style="endArrow=none;html=1;entryX=0.5;entryY=0;entryDx=0;entryDy=0;exitX=1;exitY=0.75;exitDx=0;exitDy=0;" parent="1" source="LyNaJWKL_-otteVixTfj-16" target="LyNaJWKL_-otteVixTfj-11" edge="1">
                    <mxGeometry width="50" height="50" relative="1" as="geometry">
                        <mxPoint x="430" y="250" as="sourcePoint"/>
                        <mxPoint x="480" y="200" as="targetPoint"/>
                        <Array as="points">
                            <mxPoint x="520" y="107"/>
                        </Array>
                    </mxGeometry>
                </mxCell>
                <mxCell id="24" value="" style="endArrow=none;html=1;entryX=0.33;entryY=-0.005;entryDx=0;entryDy=0;entryPerimeter=0;exitX=0.997;exitY=0.887;exitDx=0;exitDy=0;exitPerimeter=0;" parent="1" source="LyNaJWKL_-otteVixTfj-16" target="LyNaJWKL_-otteVixTfj-11" edge="1">
                    <mxGeometry width="50" height="50" relative="1" as="geometry">
                        <mxPoint x="330" y="125" as="sourcePoint"/>
                        <mxPoint x="510" y="200" as="targetPoint"/>
                        <Array as="points">
                            <mxPoint x="500" y="125"/>
                        </Array>
                    </mxGeometry>
                </mxCell>
                <mxCell id="25" value="enableBackBuff" style="text;html=1;align=center;verticalAlign=middle;whiteSpace=wrap;rounded=0;" parent="1" vertex="1">
                    <mxGeometry x="285" y="90" width="60" height="30" as="geometry"/>
                </mxCell>
                <mxCell id="26" value="resetBackBuff" style="text;html=1;align=center;verticalAlign=middle;whiteSpace=wrap;rounded=0;" parent="1" vertex="1">
                    <mxGeometry x="289" y="110" width="60" height="30" as="geometry"/>
                </mxCell>
                <mxCell id="27" value="instructions [26,17]" style="text;html=1;align=center;verticalAlign=middle;resizable=0;points=[];autosize=1;strokeColor=none;fillColor=none;" parent="1" vertex="1">
                    <mxGeometry x="-50" y="210" width="120" height="30" as="geometry"/>
                </mxCell>
                <mxCell id="28" value="instructions [16,7]" style="text;html=1;align=center;verticalAlign=middle;resizable=0;points=[];autosize=1;strokeColor=none;fillColor=none;" parent="1" vertex="1">
                    <mxGeometry x="-50" y="330" width="120" height="30" as="geometry"/>
                </mxCell>
                <mxCell id="33" value="instruction" style="text;strokeColor=none;align=center;fillColor=none;html=1;verticalAlign=middle;whiteSpace=wrap;rounded=0;" parent="1" vertex="1">
                    <mxGeometry x="180" y="60" width="60" height="30" as="geometry"/>
                </mxCell>
                <mxCell id="34" value="" style="endArrow=none;html=1;entryX=0;entryY=0.5;entryDx=0;entryDy=0;" parent="1" target="33" edge="1">
                    <mxGeometry width="50" height="50" relative="1" as="geometry">
                        <mxPoint x="70" y="250" as="sourcePoint"/>
                        <mxPoint x="260" y="190" as="targetPoint"/>
                        <Array as="points">
                            <mxPoint x="70" y="75"/>
                        </Array>
                    </mxGeometry>
                </mxCell>
                <mxCell id="35" value="" style="shape=flexArrow;endArrow=classic;html=1;" parent="1" edge="1">
                    <mxGeometry width="50" height="50" relative="1" as="geometry">
                        <mxPoint x="790" y="150" as="sourcePoint"/>
                        <mxPoint x="780" y="220" as="targetPoint"/>
                    </mxGeometry>
                </mxCell>
                <mxCell id="36" value="enableActorMGMT" style="text;html=1;align=center;verticalAlign=middle;whiteSpace=wrap;rounded=0;" parent="1" vertex="1">
                    <mxGeometry x="278" y="50" width="60" height="30" as="geometry"/>
                </mxCell>
                <mxCell id="37" value="" style="endArrow=none;html=1;entryX=1.009;entryY=0.422;entryDx=0;entryDy=0;entryPerimeter=0;exitX=0.5;exitY=0;exitDx=0;exitDy=0;" parent="1" source="38" target="LyNaJWKL_-otteVixTfj-16" edge="1">
                    <mxGeometry width="50" height="50" relative="1" as="geometry">
                        <mxPoint x="570" y="320" as="sourcePoint"/>
                        <mxPoint x="620" y="270" as="targetPoint"/>
                        <Array as="points">
                            <mxPoint x="655" y="410"/>
                            <mxPoint x="362" y="410"/>
                            <mxPoint x="362" y="180"/>
                            <mxPoint x="440" y="180"/>
                            <mxPoint x="440" y="65"/>
                        </Array>
                    </mxGeometry>
                </mxCell>
                <mxCell id="38" value="enable" style="text;html=1;align=center;verticalAlign=middle;whiteSpace=wrap;rounded=0;" parent="1" vertex="1">
                    <mxGeometry x="625" y="470" width="60" height="30" as="geometry"/>
                </mxCell>
                <mxCell id="39" value="" style="endArrow=none;html=1;entryX=1.009;entryY=0.422;entryDx=0;entryDy=0;entryPerimeter=0;exitX=0.336;exitY=0.005;exitDx=0;exitDy=0;exitPerimeter=0;" parent="1" source="LyNaJWKL_-otteVixTfj-32" edge="1">
                    <mxGeometry width="50" height="50" relative="1" as="geometry">
                        <mxPoint x="628" y="487.5" as="sourcePoint"/>
                        <mxPoint x="360" y="82.5" as="targetPoint"/>
                        <Array as="points">
                            <mxPoint x="590" y="430"/>
                            <mxPoint x="350" y="430"/>
                            <mxPoint x="350" y="170"/>
                            <mxPoint x="430" y="170"/>
                            <mxPoint x="430" y="83"/>
                        </Array>
                    </mxGeometry>
                </mxCell>
                <mxCell id="40" value="reset" style="text;html=1;align=center;verticalAlign=middle;whiteSpace=wrap;rounded=0;" parent="1" vertex="1">
                    <mxGeometry x="565" y="470" width="60" height="30" as="geometry"/>
                </mxCell>
                <mxCell id="41" value="resetActorMGMT" style="text;html=1;align=center;verticalAlign=middle;whiteSpace=wrap;rounded=0;" parent="1" vertex="1">
                    <mxGeometry x="283" y="70" width="60" height="30" as="geometry"/>
                </mxCell>
            </root>
        </mxGraphModel>
    </diagram>
</mxfile>